<svg xmlns="http://www.w3.org/2000/svg" version="1.1" xmlns:xlink="http://www.w3.org/1999/xlink" xmlns:svgjs="http://svgjs.com/svgjs" width="512" height="512" x="0" y="0" viewBox="0 0 175 175" style="enable-background:new 0 0 512 512" xml:space="preserve" class=""><g><g xmlns="http://www.w3.org/2000/svg" id="Layer_2" data-name="Layer 2"><g id="Filled"><g id="_07.Angry" data-name="07.Angry"><circle id="Background" cx="87.5" cy="87.5" fill="#ffdd67" r="87.5" data-original="#ffdd67" class=""></circle><g id="Face"><g id="Mouth"><rect fill="#b26d3c" height="39.83" rx="11.57" width="97.09" x="38.96" y="102.07" data-original="#b26d3c" class=""></rect><g fill="#fff"><path d="m100.66 108.07h14.31v11.93h-14.31z" fill="#ffffff" data-original="#ffffff" class=""></path><path d="m100.66 123.98h14.31v11.93h-14.31z" fill="#ffffff" data-original="#ffffff" class=""></path><path d="m130 113.64v6.36h-9v-11.93h3.51a5.57 5.57 0 0 1 5.49 5.57z" fill="#ffffff" data-original="#ffffff" class=""></path><path d="m130 124v6.36a5.57 5.57 0 0 1 -5.56 5.57h-3.44v-11.93z" fill="#ffffff" data-original="#ffffff" class=""></path><path d="m80.34 108.07h14.31v11.93h-14.31z" fill="#ffffff" data-original="#ffffff" class=""></path><path d="m80.34 123.98h14.31v11.93h-14.31z" fill="#ffffff" data-original="#ffffff" class=""></path><path d="m60.03 108.07h14.31v11.93h-14.31z" fill="#ffffff" data-original="#ffffff" class=""></path><path d="m60.03 123.98h14.31v11.93h-14.31z" fill="#ffffff" data-original="#ffffff" class=""></path><path d="m54 108.07v11.93h-9v-6.36a5.57 5.57 0 0 1 5.56-5.57z" fill="#ffffff" data-original="#ffffff" class=""></path><path d="m54 124v11.93h-3.48a5.57 5.57 0 0 1 -5.52-5.59v-6.34z" fill="#ffffff" data-original="#ffffff" class=""></path></g></g><g fill="#b26d3c"><g id="Eye_02" data-name="Eye 02"><circle cx="116.5" cy="71.17" r="11.5" fill="#b26d3c" data-original="#000000" class=""></circle><rect height="12" rx="6" transform="matrix(.965 -.261 .261 .965 -9.39 32.25)" width="40.46" x="96.55" y="45.5" fill="#b26d3c" data-original="#000000" class=""></rect></g><g id="Eye_01" data-name="Eye 01"><circle cx="58.5" cy="71.17" r="11.5" fill="#b26d3c" data-original="#000000" class=""></circle><rect height="40.46" rx="6" transform="matrix(.261 -.965 .965 .261 -6.68 94.26)" width="12" x="52.22" y="31.27" fill="#b26d3c" data-original="#000000" class=""></rect></g></g></g></g></g></g></g></svg>