<svg xmlns="http://www.w3.org/2000/svg" version="1.1" xmlns:xlink="http://www.w3.org/1999/xlink" xmlns:svgjs="http://svgjs.com/svgjs" width="512" height="512" x="0" y="0" viewBox="0 0 175 175" style="enable-background:new 0 0 512 512" xml:space="preserve" class=""><g><g xmlns="http://www.w3.org/2000/svg" id="Layer_2" data-name="Layer 2"><g id="Filled"><g id="_35.Sad-Tear" data-name="35.Sad-Tear"><circle id="Background" cx="87.5" cy="87.5" fill="#ffdd67" r="87.5" data-original="#ffdd67"></circle><path id="Watter_Drop" d="m70.47 126.22c0 10.1-7.6 18.28-17 18.28s-17-8.18-17-18.28c0-8 10.59-22.49 15-28.24a2.4 2.4 0 0 1 3.87 0c4.54 5.75 15.13 20.27 15.13 28.24z" fill="#4cc4ff" data-name="Watter Drop" data-original="#4cc4ff"></path><g id="Face" fill="#b26d3c"><path d="m125.89 138.22a6.1 6.1 0 0 1 -2.47.53 5.92 5.92 0 0 1 -4.82-2.46c-3-4.11-8.62-10.14-17.44-12.31a28.41 28.41 0 0 0 -12-.29 6 6 0 0 1 -7.16-5.89 6 6 0 0 1 4.88-5.9 40.2 40.2 0 0 1 17.21.43c12.38 3 20.16 11.18 24.3 16.94a6 6 0 0 1 -2.5 8.95z" fill="#b26d3c" data-original="#b26d3c"></path><circle cx="116.5" cy="71.17" r="11.5" fill="#b26d3c" data-original="#b26d3c"></circle><circle cx="58.5" cy="71.17" r="11.5" fill="#b26d3c" data-original="#b26d3c"></circle></g></g></g></g></g></svg>