<svg xmlns="http://www.w3.org/2000/svg" version="1.1" xmlns:xlink="http://www.w3.org/1999/xlink" xmlns:svgjs="http://svgjs.com/svgjs" width="512" height="512" x="0" y="0" viewBox="0 0 175 175" style="enable-background:new 0 0 512 512" xml:space="preserve" class=""><g><g xmlns="http://www.w3.org/2000/svg" id="Layer_2" data-name="Layer 2"><g id="Filled"><g id="_28.Laugh-Beam" data-name="28.Laugh-Beam"><circle id="Background" cx="87.5" cy="87.5" fill="#ffdd67" r="87.5" data-original="#ffdd67" class=""></circle><g id="Face" fill="#b26d3c"><path id="Mouth" d="m139.71 108.12c-.13 7.45-5.89 25.6-26.42 36.77a52.9 52.9 0 0 1 -51.58 0c-20.53-11.17-26.29-29.32-26.42-36.77-.23-4.18 1.69-7.58 6.67-7.58h91.04c5.27 0 6.94 3.4 6.71 7.58z" fill="#b26d3c" data-original="#b26d3c" class=""></path><path id="Eye_02" d="m116.5 58.77c-11 0-19.89 16.63-19.89 10.28s8.9-22.38 19.89-22.38 19.9 16 19.9 22.38-8.91-10.28-19.9-10.28z" data-name="Eye 02" fill="#b26d3c" data-original="#b26d3c" class=""></path><path id="Eye_01" d="m58.5 58.35c-11 0-19.9 16.64-19.9 10.29s8.91-22.38 19.9-22.38 19.89 16 19.89 22.38-8.9-10.29-19.89-10.29z" data-name="Eye 01" fill="#b26d3c" data-original="#b26d3c" class=""></path></g></g></g></g></g></svg>