<svg xmlns="http://www.w3.org/2000/svg" version="1.1" xmlns:xlink="http://www.w3.org/1999/xlink" xmlns:svgjs="http://svgjs.com/svgjs" width="512" height="512" x="0" y="0" viewBox="0 0 512 512" style="enable-background:new 0 0 512 512" xml:space="preserve" class=""><g><g xmlns="http://www.w3.org/2000/svg" fill-rule="evenodd"><path d="m103 472.942v-203.867a36.428 36.428 0 0 0 -36.387-36.389h-57.594v276.655h57.59a36.429 36.429 0 0 0 36.391-36.399z" fill="#ff7043" data-original="#ff7043" class=""></path><path d="m120.059 270.461v202.481a53.166 53.166 0 0 1 -4.831 22.183c61.984 16.605 265.053 35.044 325.99-19.975 13.885-12.542 19.06-27.92 15.805-47a8.522 8.522 0 0 1 5.46-9.438c9.513-3.5 15.753-8.745 19.09-16.05 5.162-11.3 3.617-28.07-4.6-49.837a8.521 8.521 0 0 1 3.371-10.195c26.095-16.723 29.532-38.479 10.791-68.457a8.594 8.594 0 0 1 -1.13-6.175c4.117-20.754 1.132-35.6-9.129-45.379-15.325-14.611-56.778-26.278-167.16 1.152a8.526 8.526 0 0 1 -9.1-3.466c-15-21.959-13.352-54.892 5.034-100.665 13.029-49.388-.13-93.615-19.936-111.84-4.255-3.925-12.689-10.036-21.3-6.965-11.155 4-19.675 21.5-23.388 48.013-12.1 86.587-43.671 118.934-74.194 150.224-19.376 19.868-37.697 38.648-50.773 71.389z" fill="#ffba31" data-original="#ffba31" class=""></path></g></g></svg>